<svg xmlns="http://www.w3.org/2000/svg" viewBox="0 0 135.51 36.24"><defs><style>.cls-1{font-size:30px;font-family:Cardo-Regular, Cardo;}.cls-1,.cls-4{fill:#231f20;}.cls-2{fill:none;}.cls-3{fill:#f9ed32;}</style></defs><title>Artboard 2</title><g id="Layer_2" data-name="Layer 2"><text class="cls-1" transform="translate(14.23 25.33)">right<tspan class="cls-2" x="62.14" y="0">d</tspan><tspan x="78.11" y="0">igit</tspan></text><path class="cls-3" d="M5.33,21.74A8.9,8.9,0,0,0,8.79,24a3.41,3.41,0,0,0,4.54-4.21,7.54,7.54,0,0,0-2-3.28Q8.23,13.43,5.57,14a3.7,3.7,0,0,0-1.78,1,3,3,0,0,0-.87,3.19,9.18,9.18,0,0,0,2.3,3.36Z"/><path class="cls-4" d="M2.43,5.3a.2.2,0,0,1,.32,0q.16.16-.23,1.47T2.07,8.43q-.22,1.13-.35,2.34-.44,4,.66,5.16a.63.63,0,0,0,.14-.24c0-.11.12-.29.23-.56A4.41,4.41,0,0,1,3.66,14a5.61,5.61,0,0,1,2-1.22,6.58,6.58,0,0,1,2.5-.46,6.7,6.7,0,0,1,4.72,2.07,6.65,6.65,0,0,1,2.05,4.75,6.35,6.35,0,0,1-2,4.75,5.43,5.43,0,0,1-4.88,1.58A8.82,8.82,0,0,1,3,22.87a9.85,9.85,0,0,1-3-6.52,27.67,27.67,0,0,1,1.45-9A8,8,0,0,1,2,6.09,3.5,3.5,0,0,1,2.43,5.3ZM5.33,21.74A8.9,8.9,0,0,0,8.79,24a3.41,3.41,0,0,0,4.54-4.21,7.54,7.54,0,0,0-2-3.28Q8.23,13.43,5.57,14a3.7,3.7,0,0,0-1.78,1,3,3,0,0,0-.87,3.19,9.18,9.18,0,0,0,2.3,3.36Z"/><path class="cls-3" d="M86.81,22.44a9.18,9.18,0,0,0,2.3-3.36,3,3,0,0,0-.87-3.19,3.69,3.69,0,0,0-1.78-1q-2.66-.61-5.72,2.44a7.54,7.54,0,0,0-2,3.28,3.41,3.41,0,0,0,4.54,4.21,8.9,8.9,0,0,0,3.46-2.24Z"/><path class="cls-4" d="M90.1,6.95a8.11,8.11,0,0,1,.49,1.27,27.71,27.71,0,0,1,1.45,9,9.85,9.85,0,0,1-3,6.51A8.81,8.81,0,0,1,84,26.33a5.43,5.43,0,0,1-4.88-1.58,6.35,6.35,0,0,1-2-4.75,7.05,7.05,0,0,1,6.77-6.83,6.59,6.59,0,0,1,2.5.46,5.61,5.61,0,0,1,2,1.22A4.41,4.41,0,0,1,89.32,16c.11.27.19.45.23.56a.63.63,0,0,0,.14.24q1.1-1.16.66-5.16-.13-1.21-.35-2.34-.06-.35-.45-1.66t-.23-1.47a.2.2,0,0,1,.32,0A3.49,3.49,0,0,1,90.1,6.95ZM86.85,22.48a9.14,9.14,0,0,0,2.3-3.36,3,3,0,0,0-.87-3.19,3.69,3.69,0,0,0-1.78-1q-2.66-.61-5.72,2.44a7.54,7.54,0,0,0-2,3.28,3.41,3.41,0,0,0,4.54,4.21,8.9,8.9,0,0,0,3.46-2.24Z"/></g></svg>