<svg xmlns="http://www.w3.org/2000/svg" width="1000" height="1000" viewBox="0 0 1000 1000">
  <metadata><?xpacket begin="﻿" id="W5M0MpCehiHzreSzNTczkc9d"?>
<x:xmpmeta xmlns:x="adobe:ns:meta/" x:xmptk="Adobe XMP Core 5.6-c138 79.159824, 2016/09/14-01:09:01        ">
   <rdf:RDF xmlns:rdf="http://www.w3.org/1999/02/22-rdf-syntax-ns#">
      <rdf:Description rdf:about=""/>
   </rdf:RDF>
</x:xmpmeta>
                                                                                                    
                                                                                                    
                                                                                                    
                                                                                                    
                                                                                                    
                                                                                                    
                                                                                                    
                                                                                                    
                                                                                                    
                                                                                                    
                                                                                                    
                                                                                                    
                                                                                                    
                                                                                                    
                                                                                                    
                                                                                                    
                                                                                                    
                                                                                                    
                                                                                                    
                                                                                                    
                           
<?xpacket end="w"?></metadata>
<defs>
    <style>
      .cls-1 {
        fill: #f205c7;
        fill-rule: evenodd;
      }
    </style>
  </defs>
  <path id="p" class="cls-1" d="M123.2,920.045q18.221,25.61,46.665,25.609,54.633,0,111.542-89.916Q498.79,497.214,502.783,491.522q3.975-5.682,6.829-5.691,2.827,0,11.951,12.52,9.1,12.539,27.316,25.04,18.193,12.511,43.251,12.52,58.047,0,126.906-55.2T833.423,358.356q45.508-67.144,51.218-109.265,0-81.949-80.811-81.949-44.388,0-132.028,75.12-28.464,25.049-35.853,25.04c-4.944,0-7.4-1.512-7.4-4.553a21.523,21.523,0,0,1,1.707-8.536q1.708-3.975,19.919-46.666,18.192-42.681,31.3-75.688,13.073-33,13.089-42.682,0-9.657-7.967-22.194-7.976-12.511-25.04-12.52T627.413,70.4L573.919,133Q453.264,274.14,289.375,499.49q-76.24,106.969-130.321,208.286-54.047,101.288-54.064,155.93Q104.99,894.437,123.2,920.045ZM758.3,251.367q0,33.026-86.5,114.387-86.511,81.388-129.752,81.379c-3.041,0-4.553-.746-4.553-2.276q0-22.755,91.623-111.541,91.606-88.777,120.078-88.778,9.1,0,9.105,6.829h0Z"/>
</svg>
