<svg xmlns="http://www.w3.org/2000/svg" xmlns:xlink="http://www.w3.org/1999/xlink" width="1863" height="1979" viewBox="0 0 1863 1979">
  <metadata><?xpacket begin="﻿" id="W5M0MpCehiHzreSzNTczkc9d"?>
<x:xmpmeta xmlns:x="adobe:ns:meta/" x:xmptk="Adobe XMP Core 5.6-c138 79.159824, 2016/09/14-01:09:01        ">
   <rdf:RDF xmlns:rdf="http://www.w3.org/1999/02/22-rdf-syntax-ns#">
      <rdf:Description rdf:about=""/>
   </rdf:RDF>
</x:xmpmeta>
                                                                                                    
                                                                                                    
                                                                                                    
                                                                                                    
                                                                                                    
                                                                                                    
                                                                                                    
                                                                                                    
                                                                                                    
                                                                                                    
                                                                                                    
                                                                                                    
                                                                                                    
                                                                                                    
                                                                                                    
                                                                                                    
                                                                                                    
                                                                                                    
                                                                                                    
                                                                                                    
                           
<?xpacket end="w"?></metadata>
<defs>
    <style>
      .cls-1 {
        filter: url(#filter);
      }

      .cls-2 {
        fill: #fff;
        fill-rule: evenodd;
      }
    </style>
    <filter id="filter" filterUnits="userSpaceOnUse">
      <feOffset result="offset" dy="63" in="SourceAlpha"/>
      <feGaussianBlur result="blur" stdDeviation="10.198"/>
      <feFlood result="flood" flood-opacity="0.1"/>
      <feComposite result="composite" operator="in" in2="blur"/>
      <feBlend result="blend" in="SourceGraphic"/>
    </filter>
  </defs>
  <g class="cls-1">
    <path class="cls-2" d="M1486.5,483.153L1592.01,337.4a24.666,24.666,0,0,0-23.78-38.84l-121.36,18.924-19.11-122.566a24.671,24.671,0,0,0-44.36-10.668L1278.96,328.529c-139.74-71.237-297.271-96.909-454.632-72.371C624.6,287.3,449.156,395.453,330.3,560.687,211.514,725.812,163.478,928.194,195.033,1130.56s138.929,380.51,302.347,501.63c163.522,121.2,363.571,170.8,563.29,139.65s375.17-139.29,494.03-304.53c118.78-165.12,166.82-367.51,135.26-569.868C1665.31,739.331,1594.3,596.053,1486.5,483.153Zm-202.19-77.861,103.93-143.578,13.64,87.447a24.618,24.618,0,0,0,9.72,16.045l0.34,0.258a24.7,24.7,0,0,0,18.46,4.53l86.92-13.554L1413.06,500.479,1301.85,517.82Zm-231.24,1317.8c-385.269,60.08-748.316-209.14-809.286-600.14S446.652,364.986,831.93,304.909c147.693-23.031,292.07,2.406,417.46,64.483l-11,15.193a24.7,24.7,0,0,0-4.39,18.267l17.73,113.741c-115.56-73.961-256.55-107.216-400.021-84.844C535,481.134,318.076,782.51,368.139,1103.57S716.59,1645.64,1033.3,1596.26a576.223,576.223,0,0,0,356.05-203.4,591.237,591.237,0,0,0,134.64-386.08,24.669,24.669,0,1,0-49.33.86c4.64,267.14-188.37,499.23-448.97,539.87-289.823,45.19-562.93-157.37-608.8-451.54S569.481,525.688,859.31,480.494c135.958-21.2,269.5,12.239,377.29,85.157l-78.01,107.757c-79.78-52.184-177.853-76.22-278.633-60.5C661.729,646.932,512.245,854.545,546.733,1075.71s240.084,373.41,458.317,339.38,367.7-241.64,333.22-462.807a407.409,407.409,0,0,0-140.09-249.415l77.98-107.736a540.143,540.143,0,0,1,177.48,270.8,24.67,24.67,0,0,0,47.46-13.492,589.346,589.346,0,0,0-183.72-287.116l113.44-17.688a24.667,24.667,0,0,0,16.18-9.91l9.79-13.535a720.908,720.908,0,0,1,184.43,380.848C1702.19,1296.04,1438.34,1663.01,1053.07,1723.09Zm-17.5-879.366-220.956,300a24.668,24.668,0,1,0,39.963,28.93L1075.05,873.315m-0.68.588,94.81-130.976A358.214,358.214,0,0,1,1289.52,959.89c30.3,194.28-100.73,376.62-292.075,406.46S625.777,1262.4,595.482,1068.11,696.21,691.5,887.559,661.657c87.417-13.632,172.531,6.907,242.091,51.745l-94.89,131.082"/>
    <path id="Forma_1" data-name="Forma 1" class="cls-2" d="M777.047,891.837a19.9,19.9,0,0,0-28.123,0l-126.1,125.895a19.834,19.834,0,0,0,0,28.08l125.552,125.37a19.869,19.869,0,1,0,28.129-28.07l-111.49-111.34L777.047,919.919A19.835,19.835,0,0,0,777.047,891.837ZM1223.17,1017.21L1097.6,891.832a19.872,19.872,0,1,0-28.12,28.087l111.5,111.331L1068.95,1143.1a19.873,19.873,0,0,0,28.13,28.08l126.09-125.89A19.821,19.821,0,0,0,1223.17,1017.21Zm-192.8-130.634a19.9,19.9,0,0,0-27.84,4l-190.9,254.676a19.874,19.874,0,0,0,31.842,23.79l190.9-254.668A19.841,19.841,0,0,0,1030.37,886.576Z"/>
  </g>
</svg>
