<?xml version="1.0" encoding="utf-8"?>
<!-- Generator: Adobe Illustrator 21.1.0, SVG Export Plug-In . SVG Version: 6.00 Build 0)  -->
<svg version="1.1" id="Layer_1" xmlns="http://www.w3.org/2000/svg" xmlns:xlink="http://www.w3.org/1999/xlink" x="0px" y="0px"
	 viewBox="0 0 469.7 88.7" style="enable-background:new 0 0 469.7 88.7;" xml:space="preserve">
<style type="text/css">
	.st0{fill:#002D56;}
	.st1{fill:#0194D3;}
	.st2{fill:#F8971D;}
</style>
<polygon class="st0" points="207.4,44.1 233.7,76.2 216.6,76.2 192.1,46.3 192.1,76.2 176.6,76.2 176.6,12.4 192.1,12.4 192.1,41.3 
	192.2,41.3 211.8,12.4 228.8,12.4 "/>
<polygon class="st0" points="88.5,76.2 88.5,25.7 68.5,25.7 68.5,12.4 124.1,12.4 124.1,25.7 104.1,25.7 104.1,76.2 "/>
<polygon class="st0" points="127.4,76.2 127.4,12.4 172.8,12.4 172.8,25.2 142.7,25.2 142.7,38.2 171.4,38.2 171.4,49.9 142.7,49.9 
	142.7,63.4 173.3,63.4 173.3,76.2 "/>
<g>
	<g>
		<path class="st0" d="M469.7,42c0,1.2-1,2.2-2.2,2.2c-1.2,0-2.2-1-2.2-2.2c0-1.2,1-2.2,2.2-2.2C468.7,39.8,469.7,40.8,469.7,42z
			 M465.8,42c0,1,0.7,1.7,1.7,1.7c0.9,0,1.7-0.8,1.7-1.7c0-1-0.7-1.7-1.7-1.7C466.5,40.3,465.8,41,465.8,42z M467.1,43.1h-0.5v-2.2
			c0.2,0,0.5-0.1,0.8-0.1c0.4,0,0.6,0.1,0.7,0.2c0.1,0.1,0.2,0.3,0.2,0.5c0,0.3-0.2,0.4-0.4,0.5v0c0.2,0.1,0.3,0.2,0.4,0.5
			c0.1,0.3,0.1,0.4,0.2,0.5H468c-0.1-0.1-0.1-0.3-0.2-0.5c0-0.2-0.2-0.3-0.5-0.3h-0.2V43.1z M467.2,41.9h0.2c0.3,0,0.5-0.1,0.5-0.3
			c0-0.2-0.1-0.3-0.5-0.3c-0.1,0-0.2,0-0.3,0V41.9z"/>
	</g>
	<g>
		<path class="st0" d="M249.5,76.6c-0.2,0-0.4,0-0.6,0h0c-2,0-4.1-0.3-5.8-0.9c-5.7-1.7-9.2-5.7-9.2-10.9v-0.5h2.3v0.5
			c0,4,2.8,7.2,7.5,8.6c1.6,0.5,3.5,0.8,5.3,0.8c0.2,0,0.4,0,0.5,0c1.5,0,3.1-0.2,4.6-0.7c4.4-1.3,6.9-4.1,6.9-7.7
			c0-5.8-6.1-6.6-12.5-7.4l-0.2,0c-6.8-0.8-13.8-1.7-13.8-9c0-4.5,3.1-8,8.3-9.5c1.6-0.5,3.5-0.7,5.6-0.7c1.9,0,3.8,0.3,5.6,0.7
			c5.5,1.6,8.7,5.1,8.7,9.6v0.5h-2.3v-0.5c0-4.8-4.8-6.7-6.9-7.3c-3.5-1-7.2-0.9-9.9-0.1c-4.2,1.2-6.5,3.8-6.5,7.3
			c0,4.9,4.9,5.8,11.8,6.7c7.2,0.9,14.6,1.8,14.6,9.7c0,4.7-3.1,8.3-8.6,9.9C253,76.3,251.2,76.6,249.5,76.6z"/>
	</g>
	<g>
		<path class="st0" d="M273.7,88.7h-2.6l5.5-12.7l-15.3-36.2h2.6l14,33.4l14.8-33.4h2.6L273.7,88.7z"/>
	</g>
	<g>
		<path class="st0" d="M309.2,76.6c-0.2,0-0.4,0-0.6,0h0c-2,0-4.1-0.3-5.9-0.9c-5.7-1.7-9.2-5.7-9.2-10.9v-0.5h2.3v0.5
			c0,4,2.8,7.2,7.5,8.6c1.6,0.5,3.5,0.8,5.3,0.8c0.2,0,0.4,0,0.5,0c1.5,0,3.1-0.2,4.6-0.7c4.4-1.3,6.9-4.1,6.9-7.7
			c0-5.8-6.1-6.6-12.5-7.4l-0.2,0c-6.8-0.8-13.8-1.7-13.8-9c0-4.5,3.1-8,8.2-9.5c1.6-0.5,3.5-0.7,5.6-0.7c1.9,0,3.8,0.3,5.6,0.7
			c5.5,1.6,8.7,5.1,8.7,9.6v0.5h-2.3v-0.5c0-4.8-4.8-6.7-6.9-7.3c-3.5-1-7.2-0.9-9.9-0.1c-4.2,1.2-6.5,3.8-6.5,7.3
			c0,4.9,4.9,5.8,11.8,6.7c7.2,0.9,14.6,1.8,14.6,9.7c0,4.7-3.1,8.3-8.6,9.9C312.8,76.3,311,76.6,309.2,76.6z"/>
	</g>
	<g>
		<path class="st0" d="M338,76.4c-7.8,0-9.4-4.6-9.4-12.5V42.2H322v-2.3h6.7v-7.4h2.3v7.4h9.8v2.3H331v21.8c0,8,1.3,11,9.8,10.1
			l0.5-0.1l0.2,2.3l-0.5,0.1C339.9,76.4,338.9,76.4,338,76.4z"/>
	</g>
	<g>
		<path class="st0" d="M358,76.5c-7.8,0-13.8-4-16.6-11c-0.9-2.2-1.4-4.8-1.4-7.5c0-2.7,0.5-5.2,1.4-7.5c2.8-7,8.8-11,16.6-11
			c5.1,0,9.5,1.7,12.7,5c3.3,3.4,5.2,8.1,5.1,13.4l0,0.5h-33.4c0.1,2.2,0.5,4.3,1.2,6.2c2.4,6,7.6,9.5,14.4,9.5
			c6.5,0,11.5-3.1,14-8.6l0.1-0.3h2.5l-0.3,0.7C371.5,72.7,365.6,76.5,358,76.5z M342.5,56.2h31c-0.8-8.6-7-14.4-15.5-14.4
			c-6.8,0-12,3.4-14.4,9.5C343,52.9,342.6,54.5,342.5,56.2z"/>
	</g>
	<g>
		<path class="st0" d="M433.1,76.2h-2.3V56c-0.1-4.6-1.2-8.3-3.3-10.6c-2.1-2.2-4.9-3.4-8.4-3.4h-0.1c-2.5,0-6.1,0.7-8.6,3.8
			c-2,2.5-3,5.9-3,10.6v20h-2.3v-20c0-4.8-1.2-8.5-3.4-11c-2-2.2-4.9-3.4-8.4-3.4H393c-2.5,0-6.1,0.7-8.6,3.8c-2,2.3-3,5.7-3,10
			v20.5h-2.3V39.7h2.3V46c0.4-0.7,0.8-1.3,1.2-1.8c3.2-3.8,7.4-4.6,10.4-4.6h0.1c4.2,0,7.7,1.4,10.1,4.1c1.2,1.3,2.2,3.2,2.8,5.2
			c0.6-1.9,1.6-3.6,2.5-4.7c3.1-3.8,7.3-4.6,10.4-4.6h0.1c4.2,0,7.7,1.4,10.1,4.1c2.6,2.9,3.9,7,4,12.2V76.2z"/>
	</g>
	<g>
		<path class="st0" d="M452.4,76.6c-0.2,0-0.4,0-0.6,0h0c-2,0-4.1-0.3-5.9-0.9c-5.7-1.7-9.2-5.7-9.2-10.9v-0.5h2.3v0.5
			c0,4,2.8,7.2,7.5,8.6c1.6,0.5,3.5,0.8,5.3,0.8c0.2,0,0.4,0,0.5,0c1.5,0,3.1-0.2,4.6-0.7c4.4-1.3,6.9-4.1,6.9-7.7
			c0-5.8-6.1-6.6-12.5-7.4l-0.2,0c-6.8-0.8-13.8-1.7-13.8-9c0-4.5,3.1-8,8.2-9.5c1.6-0.5,3.5-0.7,5.6-0.7c1.9,0,3.8,0.3,5.6,0.7
			c5.5,1.6,8.7,5.1,8.7,9.6v0.5h-2.3v-0.5c0-4.8-4.8-6.7-6.9-7.3c-3.5-1-7.2-0.9-9.9-0.1c-4.2,1.2-6.5,3.8-6.5,7.3
			c0,4.9,4.9,5.8,11.8,6.7c7.2,0.9,14.6,1.8,14.6,9.7c0,4.7-3.1,8.3-8.6,9.9C456,76.3,454.2,76.6,452.4,76.6z"/>
	</g>
</g>
<g>
	<g>
		<path class="st1" d="M17.6,16.7c-4.9,0-8.4,0.3-10.2,0.8c-0.1,0-0.1,0-0.2,0.1c-3.2,0.7-5.1,2.6-5.7,5.6c-0.8,3.9,3.7,8.4,3.8,8.4
			C5.5,31.8,32.7,55,35.2,57.1c2.6,2.3,6.3,3.5,8.3,2.6c0.8-0.4,1.5-0.8,2-1.2c-0.8,0.2-1.6,0.4-2.4,0.4l0,0c-1.7,0-3.2-0.5-4.6-1.6
			c-5.1-4-11-16-12-18.2l-0.4-0.9c-1.6-3.6-3.8-8.6-2.5-15c0.6-3,1.5-5.2,2-6.1C24.3,16.9,21.1,16.7,17.6,16.7z"/>
	</g>
	<g>
		<path class="st2" d="M18.5,15c3.3,0,6.4,0.2,8,0.3l1,0.1c3.9,0.4,9.3,1,14.3,5.3c2.3,2,3.7,3.9,4.3,4.8c1.5-2.3,7.5-12,8.5-16.1
			c0-0.1,0-0.1,0.1-0.2c1-3.1,0.3-5.7-2-7.7c-1.1-1-2.8-1.5-4.9-1.5c-2.3,0-4.3,0.6-4.3,0.6c-0.3,0.1-33.9,12.2-37,13.3
			c-2.9,1-6.1,3.4-6.4,5.9c-0.1,0.9-0.1,1.7,0,2.3C0.6,20,2,17.8,4.7,16.7C8.1,15.3,14.1,15,18.5,15z"/>
	</g>
	<g>
		<path class="st0" d="M28.2,39c1.3,2.5,6.5,12.5,9.6,15.5c0,0,0.1,0.1,0.2,0.2c0.6,0.6,2.3,2.6,5.3,2.6c0.8,0,1.6-0.1,2.4-0.4
			c3.8-1.2,5.4-7.4,5.4-7.5c0.1-0.3,6.5-35.4,7.2-38.7c0.6-3.1,0.1-6.9-1.9-8.5c-0.7-0.5-1.4-0.9-2-1.1c1.6,1.5,2.8,3.8,2.4,6.7
			c-0.9,6.4-8.4,17.6-9.8,19.5l-0.6,0.8c-2.3,3.2-5.5,7.6-11.8,9.7C31.7,38.6,29.3,38.9,28.2,39z"/>
	</g>
</g>
<g>
</g>
<g>
</g>
<g>
</g>
<g>
</g>
<g>
</g>
<g>
</g>
</svg>
