<svg id="Layer_1" data-name="Layer 1" xmlns="http://www.w3.org/2000/svg" viewBox="0 0 569.05 202.25"><defs><style>.cls-1{fill:#b72d30;}.cls-2{fill:#b72e30;}</style></defs><title>Artboard 1</title><polygon class="cls-1" points="51.76 164.86 44.47 164.86 44.47 71.73 0 71.73 0 202.25 51.76 202.25 51.76 164.86"/><path class="cls-1" d="M60.17,0H0V40Q53.67,41,60.17,0Z"/><path class="cls-1" d="M152.68,24.93Q130.31,2,93.86.17v38.9q18.36,3.84,28.23,16.44,12.46,16.15,12.46,48.72,0,31.16-15.58,47a44.23,44.23,0,0,1-25.11,12.83v38q40-2,62.5-29Q179,145.88,179,100,179,51.27,152.68,24.93Z"/><rect class="cls-1" x="34.18" y="71.73" width="17.58" height="103.7"/><polygon class="cls-1" points="93.86 164.09 93.86 34.9 124.46 34.9 145.44 91.02 136.44 136.99 111.28 175.43 93.86 164.09"/><path class="cls-2" d="M246.92,62.36V91q0,9.15-5.12,13.83t-14.54,4.67q-19.6,0-19.6-18.5V62.36h10.12V91q0,4.58,1.68,6.9,2.26,3.09,7.8,3.09,5.29,0,7.48-2.45,2.06-2.26,2.06-7.54V62.36Z"/><path class="cls-2" d="M255,108.39v-46h10.1l19.29,30.88V62.36h9.48v46H283.68L264.45,77.58v30.81Z"/><path class="cls-2" d="M300.1,85.57q0-10.57,6-17.28,6.19-7,16.63-7t16.63,7q6,6.7,6,17.28,0,10.31-6,17-6.25,7-16.63,7t-16.63-7Q300.1,95.89,300.1,85.57Zm10.12,0a18.26,18.26,0,0,0,2.84,10.57,12.09,12.09,0,0,0,19.34,0,18.27,18.27,0,0,0,2.84-10.57q0-6.7-2.84-10.89a12,12,0,0,0-19.34,0Q310.22,78.87,310.22,85.57Z"/><path class="cls-2" d="M351.61,108.39v-46h19.85q9.35,0,14.89,5.67,6,6,6,17.08,0,10.44-5.16,16.63-5.54,6.64-15.73,6.64Zm10.12-37.52v29h9a10.61,10.61,0,0,0,7.93-3.09q3.54-3.61,3.54-10.7,0-7.41-2.84-11.09-3.22-4.12-10.44-4.13Z"/><path class="cls-2" d="M398.73,108.39v-46h34.42v8.51h-24.3v9.86h22.3V88.6h-22.3V99.88h24.82v8.51Z"/><path class="cls-2" d="M478.92,62.36V91q0,9.15-5.12,13.83t-14.54,4.67q-19.6,0-19.6-18.5V62.36h10.12V91q0,4.58,1.68,6.9,2.26,3.09,7.8,3.09,5.29,0,7.48-2.45,2.06-2.26,2.06-7.54V62.36Z"/><path class="cls-2" d="M527.47,77.83h-9.8a8.6,8.6,0,0,0-3.35-5.74,10.42,10.42,0,0,0-6.71-2.32,10.9,10.9,0,0,0-9.67,4.9q-2.84,4.19-2.84,10.89a18.26,18.26,0,0,0,2.84,10.57,11,11,0,0,0,9.67,4.83,9.62,9.62,0,0,0,7.29-2.9,12.67,12.67,0,0,0,3.16-7.41h9.8q-.77,8.57-6.29,13.7a19.69,19.69,0,0,1-14,5.13q-10.38,0-16.63-7-6-6.64-6-17,0-10.57,6-17.28,6.19-7,16.63-7a20.64,20.64,0,0,1,13.28,4.32A17.59,17.59,0,0,1,527.47,77.83Z"/><path class="cls-2" d="M534.11,108.39v-46h34.42v8.51h-24.3v9.86h22.3V88.6h-22.3V99.88H569v8.51Z"/><path class="cls-2" d="M296.22,140.62v-23h7.12l5.38,15.83h.06l5.09-15.83H321v23h-4.74V124.31h-.06l-5.64,16.31h-3.9L301,124.47H301v16.15Z"/><path class="cls-2" d="M344.66,117.61v14.31q0,4.58-2.56,6.91t-7.27,2.34q-9.8,0-9.8-9.25V117.61h5.06v14.31a5.87,5.87,0,0,0,.84,3.45q1.13,1.55,3.9,1.55a4.82,4.82,0,0,0,3.74-1.22,5.54,5.54,0,0,0,1-3.77V117.61Z"/><path class="cls-2" d="M348.69,140.62v-23h5.06v18.76H365v4.25Z"/><path class="cls-2" d="M372.57,140.62V121.86h-6.9v-4.25h18.86v4.25h-6.9v18.76Z"/><path class="cls-2" d="M386.85,140.62v-23h5.06v23Z"/><path class="cls-2" d="M396,140.62v-23h7.12l5.38,15.83h.06l5.09-15.83h7.12v23h-4.74V124.31H416l-5.64,16.31h-3.9l-5.64-16.15h-.06v16.15Z"/><path class="cls-2" d="M425,140.62v-23h17.21v4.25H430v4.93h11.15v3.93H430v5.64h12.41v4.25Z"/><path class="cls-2" d="M445.52,140.62v-23h9.93a9.94,9.94,0,0,1,7.45,2.84q3,3,3,8.54a12.58,12.58,0,0,1-2.58,8.32,9.67,9.67,0,0,1-7.87,3.32Zm5.06-18.76v14.5h4.51a5.3,5.3,0,0,0,4-1.55,7.34,7.34,0,0,0,1.77-5.35,9,9,0,0,0-1.42-5.54q-1.61-2.06-5.22-2.06Z"/><path class="cls-2" d="M469.08,140.62v-23h5.06v23Z"/><path class="cls-2" d="M475.81,140.62l8.74-23h5.19l8.61,23h-5.25l-1.74-5.12h-8.61l-1.8,5.13Zm11.25-17.34-3,8.44h6l-2.9-8.44Z"/></svg>